HIERARCHY
ROOT root
{
	OFFSET	0	13.1	24.9
	CHANNELS 6  Xposition Yposition Zposition Xrotation Yrotation Zrotation
	JOINT spine_1
	{
		OFFSET	0	9.99999	0
		CHANNELS 3  Xrotation Yrotation Zrotation
		JOINT spine_2
		{
			OFFSET	0	112	-10
			CHANNELS 3  Xrotation Yrotation Zrotation
			JOINT spine_3
			{
				OFFSET	0	206.5	19.3
				CHANNELS 3  Xrotation Yrotation Zrotation
				JOINT spine_4
				{
					OFFSET	0	110.4	14.6
					CHANNELS 3  Xrotation Yrotation Zrotation
					JOINT neck_1
					{
						OFFSET	0	71.8	-50.3
						CHANNELS 3  Xrotation Yrotation Zrotation
						JOINT neck_2
						{
							OFFSET	0	86.2	-25.8
							CHANNELS 3  Xrotation Yrotation Zrotation
							JOINT head_ee
							{
								OFFSET	0	179.8	-8.7
								CHANNELS 3  Xrotation Yrotation Zrotation
								End Site
								{
									OFFSET	1	0	0
								}
							}
						}
					}
					JOINT left_clavicle
					{
						OFFSET	-43.2	22.4	-70.8
						CHANNELS 3  Xrotation Yrotation Zrotation
						JOINT left_shoulder
						{
							OFFSET	-93.9	-5.79999	48.7
							CHANNELS 3  Xrotation Yrotation Zrotation
							JOINT left_elbow
							{
								OFFSET	-291.4	-30.8	15.2
								CHANNELS 3  Xrotation Yrotation Zrotation
								JOINT left_lowarm_twist
								{
									OFFSET	-110.7	-3.89999	13.6
									CHANNELS 3  Xrotation Yrotation Zrotation
									JOINT left_hand
									{
										OFFSET	-110.7	-3.89999	13.6
										CHANNELS 3  Xrotation Yrotation Zrotation
										JOINT left_ee
										{
											OFFSET	-80.8	-5.10001	12.1
											CHANNELS 3  Xrotation Yrotation Zrotation
											End Site
											{
												OFFSET	1	0	0
											}
										}
									}
								}
							}
						}
					}
					JOINT right_clavicle
					{
						OFFSET	43.2	22.4	-70.8
						CHANNELS 3  Xrotation Yrotation Zrotation
						JOINT right_shoulder
						{
							OFFSET	93.9	-5.79999	48.7
							CHANNELS 3  Xrotation Yrotation Zrotation
							JOINT right_elbow
							{
								OFFSET	291.4	-30.8	15.2
								CHANNELS 3  Xrotation Yrotation Zrotation
								JOINT right_lowarm_twist
								{
									OFFSET	110.7	-3.89999	13.6
									CHANNELS 3  Xrotation Yrotation Zrotation
									JOINT right_hand
									{
										OFFSET	110.7	-3.89999	13.6
										CHANNELS 3  Xrotation Yrotation Zrotation
										JOINT right_ee
										{
											OFFSET	80.8	-5.10001	12.1
											CHANNELS 3  Xrotation Yrotation Zrotation
											End Site
											{
												OFFSET	1	0	0
											}
										}
									}
								}
							}
						}
					}
				}
			}
		}
	}
	JOINT left_hip
	{
		OFFSET	-82.8	-127.5	0.300001
		CHANNELS 3  Xrotation Yrotation Zrotation
		JOINT left_knee
		{
			OFFSET	-28.2	-396.7	2.2
			CHANNELS 3  Xrotation Yrotation Zrotation
			JOINT left_ankle
			{
				OFFSET	-11.7	-411.3	35.4
				CHANNELS 3  Xrotation Yrotation Zrotation
				JOINT left_toes
				{
					OFFSET	0	-60	-88.6
					CHANNELS 3  Xrotation Yrotation Zrotation
					JOINT left_foot_ee
					{
						OFFSET	-22.5	-16.5	-42.2
						CHANNELS 3  Xrotation Yrotation Zrotation
						End Site
						{
							OFFSET	1	0	0
						}
					}
				}
			}
		}
	}
	JOINT right_hip
	{
		OFFSET	82.8	-127.5	0.300001
		CHANNELS 3  Xrotation Yrotation Zrotation
		JOINT right_knee
		{
			OFFSET	28.2	-396.7	2.2
			CHANNELS 3  Xrotation Yrotation Zrotation
			JOINT right_ankle
			{
				OFFSET	11.7	-411.3	35.4
				CHANNELS 3  Xrotation Yrotation Zrotation
				JOINT right_toes
				{
					OFFSET	0	-60	-88.6
					CHANNELS 3  Xrotation Yrotation Zrotation
					JOINT right_foot_ee
					{
						OFFSET	22.5	-16.5	-42.2
						CHANNELS 3  Xrotation Yrotation Zrotation
						End Site
						{
							OFFSET	1	0	0
						}
					}
				}
			}
		}
	}
}
MOTION
Frames: 10
Frame Time: 0.02
3177.02 653.055 -1669.29 -16.7721295168 -5.87300224361 0.385372496081 5.99135 0.456356 1.27581 5.99217 0.374255 1.30226 5.99968 0.23306 1.33477 5.99747 0.440921 1.28123 -5.06484 0.343081 -5.08641 -4.98028 4.45168 -5.12594 -0.0 0.0 -0.0 -2.93041 23.1511 -1.36077 -53.5411 -74.697 35.2868 0.501086 -13.9406 0.0612622 62.4174 -1.99381 -7.32636 -9.61395 24.968 -53.3321 -0.0 0.0 -0.0 10.4322 13.8099 -20.7004 -9.36305 41.1854 -58.4152 1.21593 31.0609 -0.337914 -52.5763 4.37661 -4.81081 -11.1386 -32.1565 55.631 0.0 0.0 0.0 44.4763 -19.5351 -2.24232 -4.91032 0.1708 0.734002 -4.88189 12.2587 0.723352 -1.11107 0.0 0.0 -0.0 0.0 -0.0 14.1415 2.95018 -4.02422 -28.9268 -0.0836752 -4.3915 36.932 4.74432 4.65356 -3.47859 0.0 0.0 0.0 0.0 0.0 
3177.02 653.055 -1669.29 -16.7688805305 -5.76723256681 0.417411994627 5.99135 0.456356 1.27581 5.99217 0.374255 1.30226 5.99968 0.23306 1.33477 5.99747 0.440921 1.28123 -5.06484 0.343081 -5.08641 -4.98028 4.45168 -5.12594 -0.0 0.0 -0.0 -2.93041 23.1511 -1.36077 -53.5411 -74.697 35.2868 0.501086 -13.9406 0.0612622 62.4174 -1.99381 -7.32636 -9.61395 24.968 -53.3321 -0.0 0.0 -0.0 10.4322 13.8099 -20.7004 -9.36305 41.1854 -58.4152 1.21593 31.0609 -0.337914 -52.5763 4.37661 -4.81081 -11.1386 -32.1565 55.631 0.0 0.0 0.0 44.4763 -19.5351 -2.24232 -4.91032 0.1708 0.734002 -4.88189 12.2587 0.723352 -1.11107 0.0 0.0 -0.0 0.0 -0.0 14.1415 2.95018 -4.02422 -28.9268 -0.0836752 -4.3915 36.932 4.74432 4.65356 -3.47859 0.0 0.0 0.0 0.0 0.0 
3174.20989922 654.442 -1689.00324199 -16.7759354963 -6.39964409427 1.12740847631 6.05022 0.372671 1.23544 6.05102 0.293308 1.25664 6.05649 0.158695 1.28062 6.05438 0.358937 1.2395 -4.65043 -0.257609 -5.62922 -4.55022 3.79068 -5.80577 -0.0 0.0 -0.0 -3.23431 21.2643 -2.16819 -55.0616 -75.2712 34.4107 0.503303 -13.9998 0.0617975 62.1829 -1.97207 -7.30557 -9.59541 24.3643 -54.1795 -0.0 0.0 -0.0 10.3306 14.05 -20.4657 -10.1098 40.1584 -59.9586 1.14735 29.6113 -0.303273 -51.7353 4.27648 -4.77057 -11.0518 -31.9155 55.222 0.0 0.0 0.0 44.0387 -20.2077 -2.33835 -7.18263 0.228404 1.07794 -3.84525 13.5255 0.569594 -0.114796 0.0 0.0 -0.0 0.0 -0.0 13.5678 3.03499 -4.62181 -31.5582 0.0187656 -4.78231 35.821 3.85985 4.5371 -2.82512 0.0 0.0 0.0 0.0 0.0 
3174.19919815 654.442 -1689.0017136 -16.77493097 -6.36986430656 1.13644162104 6.05022 0.372671 1.23544 6.05102 0.293308 1.25664 6.05649 0.158695 1.28062 6.05438 0.358937 1.2395 -4.65043 -0.257609 -5.62922 -4.55022 3.79068 -5.80577 -0.0 0.0 -0.0 -3.23431 21.2643 -2.16819 -55.0616 -75.2712 34.4107 0.503303 -13.9998 0.0617975 62.1829 -1.97207 -7.30557 -9.59541 24.3643 -54.1795 -0.0 0.0 -0.0 10.3306 14.05 -20.4657 -10.1098 40.1584 -59.9586 1.14735 29.6113 -0.303273 -51.7353 4.27648 -4.77057 -11.0518 -31.9155 55.222 0.0 0.0 0.0 44.0387 -20.2077 -2.33835 -7.18263 0.228404 1.07794 -3.84525 13.5255 0.569594 -0.114796 0.0 0.0 -0.0 0.0 -0.0 13.5678 3.03499 -4.62181 -31.5582 0.0187656 -4.78231 35.821 3.85985 4.5371 -2.82512 0.0 0.0 0.0 0.0 0.0 
3164.19332485 661.324 -1732.64654963 -16.9520633648 -7.25292751126 1.46080261746 5.92242 0.09629 1.2331 5.92327 0.0176355 1.23673 5.92272 -0.116264 1.23138 5.92061 0.079653 1.23429 -4.06299 0.640342 -5.11443 -3.97118 5.08469 -5.16594 -0.0 0.0 -0.0 -2.2938 18.0217 -1.38605 -51.0013 -77.3887 38.0404 0.443826 -12.3999 0.0482147 62.388 -1.99108 -7.32375 -9.84614 24.8212 -56.2222 -0.0 0.0 -0.0 9.90343 14.714 -19.4908 -14.7642 38.4908 -61.2169 1.18528 30.4184 -0.32225 -50.7326 4.15789 -4.72067 -10.7904 -31.282 53.7902 0.0 0.0 0.0 43.2572 -20.9495 -2.40316 -12.4453 0.309149 1.88116 -0.210238 17.2152 0.031148 1.54201 -0.0 -0.0 -0.0 0.0 -0.0 14.1944 4.48494 -5.3542 -31.2344 0.00519116 -4.73447 29.3747 2.77639 3.86799 -2.89845 0.0 0.0 0.0 0.0 0.0 
3146.95898468 663.937 -1783.57217852 -16.6245983794 -8.46649845373 1.24287826688 5.87137 -0.103486 0.749882 5.87167 -0.150992 0.741778 5.86941 -0.231033 0.720874 5.8687 -0.114288 0.748312 -1.2734 0.815808 -4.17698 -1.19958 4.81802 -4.33292 -0.0 0.0 -0.0 0.101318 16.635 2.10995 -67.3652 -78.8549 24.6781 0.337828 -9.50062 0.0280733 62.4582 -1.9976 -7.32997 -9.9459 25.0958 -56.8853 -0.0 0.0 -0.0 9.42912 20.1596 -18.1169 -19.446 35.6107 -63.003 1.129 29.2162 -0.294262 -48.6596 3.91553 -4.61097 -9.70994 -29.4953 46.7195 0.0 0.0 0.0 43.7041 -21.3519 0.518954 -15.8774 0.321948 2.40751 4.81024 21.6961 -0.714832 2.63538 -0.0 -0.0 -0.0 0.0 -0.0 13.8214 14.007 -6.92094 -33.6391 0.112435 -5.08784 26.178 -2.14221 3.4762 -2.10266 0.0 0.0 0.0 0.0 0.0 
3148.35737375 664.474 -1811.9891334 -16.2849798468 -9.06361075726 0.932419359617 5.83389 -0.147727 0.585838 5.83406 -0.184705 0.575251 5.83204 -0.246731 0.551502 5.83165 -0.156537 0.583546 -1.51005 1.67914 -2.44067 -1.47262 4.97272 -2.37191 -0.0 0.0 -0.0 0.530317 15.4404 2.65853 -79.6052 -78.7307 13.5143 0.291477 -8.2163 0.020935 62.5823 -2.00914 -7.34092 -9.90224 24.9495 -56.6444 -0.0 0.0 -0.0 8.87823 22.2383 -16.7253 -19.9706 34.4196 -67.4998 1.04707 27.4145 -0.255395 -48.4867 3.8955 -4.60142 -9.33859 -29.3907 43.7262 0.0 0.0 0.0 43.1088 -20.8313 2.23177 -17.7144 0.315842 2.68927 10.4142 22.6757 -1.52891 3.42008 -0.0 -0.0 -0.0 0.0 -0.0 16.1229 17.6607 -8.7971 -37.1919 0.297852 -5.60114 25.5921 -5.31251 3.39987 -1.38262 0.0 0.0 0.0 0.0 0.0 
3153.42595593 663.314 -1837.82226749 -16.3719474729 -9.64373449207 -0.538635168722 5.86096 -0.164181 0.627131 5.86116 -0.203754 0.615414 5.85877 -0.2698 0.589456 5.85833 -0.173322 0.624667 -1.89777 2.39048 -1.3126 -1.87402 5.35583 -1.07111 -0.0 0.0 -0.0 1.08893 13.6995 3.39443 -89.3629 -77.985 2.89028 0.264882 -7.47553 0.0173045 62.6282 -2.01342 -7.34497 -9.88754 24.9713 -56.4268 -0.0 0.0 -0.0 8.27088 23.7415 -15.2457 -20.778 33.1954 -70.0916 0.917775 24.448 -0.198837 -48.2783 3.8714 -4.58984 -9.04613 -29.2919 41.5202 0.0 0.0 0.0 42.5465 -20.3341 3.20718 -18.9482 0.306671 2.87835 15.6944 23.248 -2.26851 4.22132 -0.0 -0.0 -0.0 0.0 -0.0 17.7699 20.1738 -10.2132 -40.3418 0.488652 -6.04605 25.0713 -7.11919 3.33908 -0.892479 0.0 0.0 0.0 0.0 0.0 
3153.05517065 663.314 -1837.76994259 -16.3659485895 -9.52276961606 -0.502601645729 5.86096 -0.164181 0.627131 5.86116 -0.203754 0.615414 5.85877 -0.2698 0.589456 5.85833 -0.173322 0.624667 -1.89777 2.39048 -1.3126 -1.87402 5.35583 -1.07111 -0.0 0.0 -0.0 1.08893 13.6995 3.39443 -89.3629 -77.985 2.89028 0.264882 -7.47553 0.0173045 62.6282 -2.01342 -7.34497 -9.88754 24.9713 -56.4268 -0.0 0.0 -0.0 8.27088 23.7415 -15.2457 -20.778 33.1954 -70.0916 0.917775 24.448 -0.198837 -48.2783 3.8714 -4.58984 -9.04613 -29.2919 41.5202 0.0 0.0 0.0 42.5465 -20.3341 3.20718 -18.9482 0.306671 2.87835 15.6944 23.248 -2.26851 4.22132 -0.0 -0.0 -0.0 0.0 -0.0 17.7699 20.1738 -10.2132 -40.3418 0.488652 -6.04605 25.0713 -7.11919 3.33908 -0.892479 0.0 0.0 0.0 0.0 0.0 
3152.46087844 663.314 -1837.68433972 -16.3564949889 -9.32880095354 -0.444876850626 5.86096 -0.164181 0.627131 5.86116 -0.203754 0.615414 5.85877 -0.2698 0.589456 5.85833 -0.173322 0.624667 -1.89777 2.39048 -1.3126 -1.87402 5.35583 -1.07111 -0.0 0.0 -0.0 1.08893 13.6995 3.39443 -89.3629 -77.985 2.89028 0.264882 -7.47553 0.0173045 62.6282 -2.01342 -7.34497 -9.88754 24.9713 -56.4268 -0.0 0.0 -0.0 8.27088 23.7415 -15.2457 -20.778 33.1954 -70.0916 0.917775 24.448 -0.198837 -48.2783 3.8714 -4.58984 -9.04613 -29.2919 41.5202 0.0 0.0 0.0 42.5465 -20.3341 3.20718 -18.9482 0.306671 2.87835 15.6944 23.248 -2.26851 4.22132 -0.0 -0.0 -0.0 0.0 -0.0 17.7699 20.1738 -10.2132 -40.3418 0.488652 -6.04605 25.0713 -7.11919 3.33908 -0.892479 0.0 0.0 0.0 0.0 0.0 
